<svg width="200" height="200" viewBox="0 0 200 200" xmlns="http://www.w3.org/2000/svg">
  <defs>
    <linearGradient id="bearGradient" x1="0%" y1="0%" x2="100%" y2="100%">
      <stop offset="0%" style="stop-color:#8B4513;stop-opacity:1" />
      <stop offset="50%" style="stop-color:#A0522D;stop-opacity:1" />
      <stop offset="100%" style="stop-color:#654321;stop-opacity:1" />
    </linearGradient>
    <linearGradient id="eyeGradient" x1="0%" y1="0%" x2="100%" y2="100%">
      <stop offset="0%" style="stop-color:#2C3E50;stop-opacity:1" />
      <stop offset="100%" style="stop-color:#1A252F;stop-opacity:1" />
    </linearGradient>
    <filter id="shadow" x="-20%" y="-20%" width="140%" height="140%">
      <feDropShadow dx="2" dy="2" stdDeviation="3" flood-color="#000000" flood-opacity="0.3"/>
    </filter>
  </defs>
  
  <!-- Bear Head -->
  <ellipse cx="100" cy="100" rx="65" ry="60" fill="url(#bearGradient)" filter="url(#shadow)"/>
  
  <!-- Left Ear -->
  <ellipse cx="65" cy="55" rx="20" ry="25" fill="url(#bearGradient)" filter="url(#shadow)"/>
  <ellipse cx="65" cy="55" rx="12" ry="15" fill="#D2691E"/>
  
  <!-- Right Ear -->
  <ellipse cx="135" cy="55" rx="20" ry="25" fill="url(#bearGradient)" filter="url(#shadow)"/>
  <ellipse cx="135" cy="55" rx="12" ry="15" fill="#D2691E"/>
  
  <!-- Snout -->
  <ellipse cx="100" cy="120" rx="25" ry="20" fill="#DEB887"/>
  
  <!-- Left Eye -->
  <ellipse cx="85" cy="85" rx="8" ry="10" fill="url(#eyeGradient)"/>
  <ellipse cx="87" cy="83" rx="3" ry="4" fill="#FFFFFF" opacity="0.8"/>
  
  <!-- Right Eye -->
  <ellipse cx="115" cy="85" rx="8" ry="10" fill="url(#eyeGradient)"/>
  <ellipse cx="117" cy="83" rx="3" ry="4" fill="#FFFFFF" opacity="0.8"/>
  
  <!-- Nose -->
  <ellipse cx="100" cy="115" rx="4" ry="3" fill="#2C3E50"/>
  
  <!-- Mouth -->
  <path d="M 85 130 Q 100 140 115 130" stroke="#2C3E50" stroke-width="2" fill="none" stroke-linecap="round"/>
  
  <!-- Whiskers -->
  <line x1="60" y1="110" x2="75" y2="108" stroke="#2C3E50" stroke-width="1" opacity="0.7"/>
  <line x1="60" y1="115" x2="75" y2="115" stroke="#2C3E50" stroke-width="1" opacity="0.7"/>
  <line x1="60" y1="120" x2="75" y2="122" stroke="#2C3E50" stroke-width="1" opacity="0.7"/>
  
  <line x1="125" y1="108" x2="140" y2="110" stroke="#2C3E50" stroke-width="1" opacity="0.7"/>
  <line x1="125" y1="115" x2="140" y2="115" stroke="#2C3E50" stroke-width="1" opacity="0.7"/>
  <line x1="125" y1="122" x2="140" y2="120" stroke="#2C3E50" stroke-width="1" opacity="0.7"/>
  
  <!-- Blueprint circuit pattern overlay (subtle) -->
  <g opacity="0.15" stroke="#3498DB" stroke-width="1" fill="none">
    <circle cx="50" cy="40" r="3"/>
    <circle cx="150" cy="40" r="3"/>
    <line x1="50" y1="40" x2="70" y2="50"/>
    <line x1="150" y1="40" x2="130" y2="50"/>
    <circle cx="70" cy="50" r="2"/>
    <circle cx="130" cy="50" r="2"/>
  </g>
  
  <!-- UE logo inspiration - subtle gear -->
  <g opacity="0.1" fill="#E74C3C" transform="translate(160,160)">
    <path d="M0,-8 L2,-6 L8,-6 L3,-2 L5,2 L0,0 L-5,2 L-3,-2 L-8,-6 L-2,-6 Z"/>
  </g>
</svg>
